<mxfile host="app.diagrams.net" agent="Mozilla/5.0 (Windows NT 10.0; Win64; x64) AppleWebKit/537.36 (KHTML, like Gecko) Chrome/137.0.0.0 Safari/537.36 Edg/137.0.0.0" version="27.1.4">
  <diagram id="C5RBs43oDa-KdzZeNtuy" name="Page-1">
    <mxGraphModel dx="1181" dy="641" grid="1" gridSize="10" guides="1" tooltips="1" connect="1" arrows="1" fold="1" page="1" pageScale="1" pageWidth="827" pageHeight="1169" math="0" shadow="0">
      <root>
        <mxCell id="WIyWlLk6GJQsqaUBKTNV-0" />
        <mxCell id="WIyWlLk6GJQsqaUBKTNV-1" parent="WIyWlLk6GJQsqaUBKTNV-0" />
        <mxCell id="bVPLZFVqfXPJP5h5ElFw-0" value="Rocket mq 生产者启动流程" style="swimlane;childLayout=stackLayout;resizeParent=1;resizeParentMax=0;startSize=20;html=1;" vertex="1" parent="WIyWlLk6GJQsqaUBKTNV-1">
          <mxGeometry x="10" y="20" width="530" height="920" as="geometry" />
        </mxCell>
        <mxCell id="bVPLZFVqfXPJP5h5ElFw-1" value="&lt;font style=&quot;font-size: 10px;&quot;&gt;DefaultMQProducer&lt;/font&gt;" style="swimlane;startSize=20;html=1;" vertex="1" parent="bVPLZFVqfXPJP5h5ElFw-0">
          <mxGeometry y="20" width="150" height="900" as="geometry" />
        </mxCell>
        <mxCell id="bVPLZFVqfXPJP5h5ElFw-5" value="&lt;font style=&quot;font-size: 10px;&quot;&gt;指定生产者组&lt;/font&gt;" style="rounded=1;whiteSpace=wrap;html=1;fontSize=12;glass=0;strokeWidth=1;shadow=0;" vertex="1" parent="bVPLZFVqfXPJP5h5ElFw-1">
          <mxGeometry x="20" y="50" width="95" height="30" as="geometry" />
        </mxCell>
        <mxCell id="bVPLZFVqfXPJP5h5ElFw-17" value="" style="edgeStyle=elbowEdgeStyle;shape=connector;curved=0;rounded=0;orthogonalLoop=1;jettySize=auto;elbow=vertical;html=1;strokeColor=default;align=center;verticalAlign=middle;fontFamily=Helvetica;fontSize=12;fontColor=default;labelBackgroundColor=default;startSize=8;endArrow=classic;endFill=1;endSize=5;" edge="1" parent="bVPLZFVqfXPJP5h5ElFw-1" source="bVPLZFVqfXPJP5h5ElFw-14" target="bVPLZFVqfXPJP5h5ElFw-16">
          <mxGeometry relative="1" as="geometry" />
        </mxCell>
        <mxCell id="bVPLZFVqfXPJP5h5ElFw-14" value="&lt;font style=&quot;font-size: 10px;&quot;&gt;设置namesrv地址&lt;/font&gt;" style="rounded=1;whiteSpace=wrap;html=1;fontSize=12;glass=0;strokeWidth=1;shadow=0;" vertex="1" parent="bVPLZFVqfXPJP5h5ElFw-1">
          <mxGeometry x="27.5" y="170" width="95" height="30" as="geometry" />
        </mxCell>
        <mxCell id="bVPLZFVqfXPJP5h5ElFw-16" value="&lt;font style=&quot;font-size: 8px;&quot;&gt;DefaultMQProducerImpl&lt;/font&gt;&lt;font style=&quot;font-size: 10px;&quot;&gt;启动&lt;/font&gt;" style="rounded=1;whiteSpace=wrap;html=1;fontSize=12;glass=0;strokeWidth=1;shadow=0;" vertex="1" parent="bVPLZFVqfXPJP5h5ElFw-1">
          <mxGeometry x="27.5" y="230" width="95" height="30" as="geometry" />
        </mxCell>
        <mxCell id="bVPLZFVqfXPJP5h5ElFw-53" value="&lt;span style=&quot;font-size: 10px;&quot;&gt;其他工作&lt;/span&gt;" style="rounded=1;whiteSpace=wrap;html=1;fontSize=12;glass=0;strokeWidth=1;shadow=0;" vertex="1" parent="bVPLZFVqfXPJP5h5ElFw-1">
          <mxGeometry x="20" y="850" width="95" height="30" as="geometry" />
        </mxCell>
        <mxCell id="bVPLZFVqfXPJP5h5ElFw-2" value="&lt;font style=&quot;font-size: 10px;&quot;&gt;DefaultMQProducerImpl&lt;/font&gt;" style="swimlane;startSize=20;html=1;" vertex="1" parent="bVPLZFVqfXPJP5h5ElFw-0">
          <mxGeometry x="150" y="20" width="160" height="900" as="geometry" />
        </mxCell>
        <mxCell id="bVPLZFVqfXPJP5h5ElFw-6" value="&lt;font style=&quot;font-size: 10px;&quot;&gt;实例化&lt;/font&gt;" style="rounded=1;whiteSpace=wrap;html=1;fontSize=12;glass=0;strokeWidth=1;shadow=0;" vertex="1" parent="bVPLZFVqfXPJP5h5ElFw-2">
          <mxGeometry x="32.5" y="110" width="95" height="30" as="geometry" />
        </mxCell>
        <mxCell id="bVPLZFVqfXPJP5h5ElFw-22" value="" style="edgeStyle=elbowEdgeStyle;shape=connector;curved=0;rounded=0;orthogonalLoop=1;jettySize=auto;elbow=vertical;html=1;strokeColor=default;align=center;verticalAlign=middle;fontFamily=Helvetica;fontSize=12;fontColor=default;labelBackgroundColor=default;startSize=8;endArrow=classic;endFill=1;endSize=5;" edge="1" parent="bVPLZFVqfXPJP5h5ElFw-2" source="bVPLZFVqfXPJP5h5ElFw-18" target="bVPLZFVqfXPJP5h5ElFw-21">
          <mxGeometry relative="1" as="geometry" />
        </mxCell>
        <mxCell id="bVPLZFVqfXPJP5h5ElFw-18" value="&lt;font style=&quot;font-size: 10px;&quot;&gt;启动&lt;/font&gt;" style="rounded=1;whiteSpace=wrap;html=1;fontSize=12;glass=0;strokeWidth=1;shadow=0;" vertex="1" parent="bVPLZFVqfXPJP5h5ElFw-2">
          <mxGeometry x="32.5" y="290" width="95" height="30" as="geometry" />
        </mxCell>
        <mxCell id="bVPLZFVqfXPJP5h5ElFw-28" value="" style="edgeStyle=elbowEdgeStyle;shape=connector;curved=0;rounded=0;orthogonalLoop=1;jettySize=auto;elbow=vertical;html=1;strokeColor=default;align=center;verticalAlign=middle;fontFamily=Helvetica;fontSize=12;fontColor=default;labelBackgroundColor=default;startSize=8;endArrow=classic;endFill=1;endSize=5;" edge="1" parent="bVPLZFVqfXPJP5h5ElFw-2" source="bVPLZFVqfXPJP5h5ElFw-21" target="bVPLZFVqfXPJP5h5ElFw-27">
          <mxGeometry relative="1" as="geometry" />
        </mxCell>
        <mxCell id="bVPLZFVqfXPJP5h5ElFw-21" value="&lt;font style=&quot;font-size: 10px;&quot;&gt;配置检查&lt;/font&gt;" style="rounded=1;whiteSpace=wrap;html=1;fontSize=12;glass=0;strokeWidth=1;shadow=0;" vertex="1" parent="bVPLZFVqfXPJP5h5ElFw-2">
          <mxGeometry x="32.5" y="350" width="95" height="30" as="geometry" />
        </mxCell>
        <mxCell id="bVPLZFVqfXPJP5h5ElFw-30" value="" style="edgeStyle=elbowEdgeStyle;shape=connector;curved=0;rounded=0;orthogonalLoop=1;jettySize=auto;elbow=vertical;html=1;strokeColor=default;align=center;verticalAlign=middle;fontFamily=Helvetica;fontSize=12;fontColor=default;labelBackgroundColor=default;startSize=8;endArrow=classic;endFill=1;endSize=5;" edge="1" parent="bVPLZFVqfXPJP5h5ElFw-2" source="bVPLZFVqfXPJP5h5ElFw-27" target="bVPLZFVqfXPJP5h5ElFw-29">
          <mxGeometry relative="1" as="geometry" />
        </mxCell>
        <mxCell id="bVPLZFVqfXPJP5h5ElFw-27" value="&lt;span style=&quot;font-size: 10px;&quot;&gt;重置实例名称&lt;/span&gt;&lt;div&gt;&lt;span style=&quot;font-size: 10px;&quot;&gt;PID+纳秒值&lt;/span&gt;&lt;/div&gt;" style="rounded=1;whiteSpace=wrap;html=1;fontSize=12;glass=0;strokeWidth=1;shadow=0;" vertex="1" parent="bVPLZFVqfXPJP5h5ElFw-2">
          <mxGeometry x="32.5" y="420" width="95" height="30" as="geometry" />
        </mxCell>
        <mxCell id="bVPLZFVqfXPJP5h5ElFw-35" value="" style="edgeStyle=elbowEdgeStyle;shape=connector;curved=0;rounded=0;orthogonalLoop=1;jettySize=auto;elbow=vertical;html=1;strokeColor=default;align=center;verticalAlign=middle;fontFamily=Helvetica;fontSize=12;fontColor=default;labelBackgroundColor=default;startSize=8;endArrow=classic;endFill=1;endSize=5;" edge="1" parent="bVPLZFVqfXPJP5h5ElFw-2" source="bVPLZFVqfXPJP5h5ElFw-29" target="bVPLZFVqfXPJP5h5ElFw-34">
          <mxGeometry relative="1" as="geometry" />
        </mxCell>
        <mxCell id="bVPLZFVqfXPJP5h5ElFw-29" value="&lt;span style=&quot;font-size: 10px;&quot;&gt;获取或者创建MQClientInstance&lt;/span&gt;" style="rounded=1;whiteSpace=wrap;html=1;fontSize=12;glass=0;strokeWidth=1;shadow=0;" vertex="1" parent="bVPLZFVqfXPJP5h5ElFw-2">
          <mxGeometry x="32.5" y="490" width="95" height="30" as="geometry" />
        </mxCell>
        <mxCell id="bVPLZFVqfXPJP5h5ElFw-44" value="" style="edgeStyle=elbowEdgeStyle;shape=connector;curved=0;rounded=0;orthogonalLoop=1;jettySize=auto;elbow=vertical;html=1;strokeColor=default;align=center;verticalAlign=middle;fontFamily=Helvetica;fontSize=12;fontColor=default;labelBackgroundColor=default;startSize=8;endArrow=classic;endFill=1;endSize=5;" edge="1" parent="bVPLZFVqfXPJP5h5ElFw-2" source="bVPLZFVqfXPJP5h5ElFw-34" target="bVPLZFVqfXPJP5h5ElFw-43">
          <mxGeometry relative="1" as="geometry" />
        </mxCell>
        <mxCell id="bVPLZFVqfXPJP5h5ElFw-34" value="&lt;span style=&quot;font-size: 10px;&quot;&gt;注册生产者到 MQClientInstance&lt;/span&gt;" style="rounded=1;whiteSpace=wrap;html=1;fontSize=12;glass=0;strokeWidth=1;shadow=0;" vertex="1" parent="bVPLZFVqfXPJP5h5ElFw-2">
          <mxGeometry x="32.5" y="555" width="95" height="30" as="geometry" />
        </mxCell>
        <mxCell id="bVPLZFVqfXPJP5h5ElFw-43" value="&lt;span style=&quot;font-size: 10px;&quot;&gt;MQClientInstance&lt;/span&gt;&lt;div&gt;&lt;span style=&quot;font-size: 10px;&quot;&gt;启动&lt;/span&gt;&lt;/div&gt;" style="rounded=1;whiteSpace=wrap;html=1;fontSize=12;glass=0;strokeWidth=1;shadow=0;" vertex="1" parent="bVPLZFVqfXPJP5h5ElFw-2">
          <mxGeometry x="32.5" y="620" width="95" height="30" as="geometry" />
        </mxCell>
        <mxCell id="bVPLZFVqfXPJP5h5ElFw-52" value="" style="edgeStyle=elbowEdgeStyle;shape=connector;curved=0;rounded=0;orthogonalLoop=1;jettySize=auto;elbow=vertical;html=1;strokeColor=default;align=center;verticalAlign=middle;fontFamily=Helvetica;fontSize=12;fontColor=default;labelBackgroundColor=default;startSize=8;endArrow=classic;endFill=1;endSize=5;" edge="1" parent="bVPLZFVqfXPJP5h5ElFw-2" source="bVPLZFVqfXPJP5h5ElFw-49" target="bVPLZFVqfXPJP5h5ElFw-51">
          <mxGeometry relative="1" as="geometry" />
        </mxCell>
        <mxCell id="bVPLZFVqfXPJP5h5ElFw-49" value="&lt;span style=&quot;font-size: 10px; background-color: transparent; color: light-dark(rgb(0, 0, 0), rgb(255, 255, 255));&quot;&gt;启动故障检测&lt;/span&gt;" style="rounded=1;whiteSpace=wrap;html=1;fontSize=12;glass=0;strokeWidth=1;shadow=0;" vertex="1" parent="bVPLZFVqfXPJP5h5ElFw-2">
          <mxGeometry x="32.5" y="730" width="95" height="30" as="geometry" />
        </mxCell>
        <mxCell id="bVPLZFVqfXPJP5h5ElFw-51" value="&lt;span style=&quot;font-size: 10px;&quot;&gt;向所有broker&lt;/span&gt;&lt;div&gt;&lt;span style=&quot;font-size: 10px;&quot;&gt;发送心跳&lt;/span&gt;&lt;/div&gt;" style="rounded=1;whiteSpace=wrap;html=1;fontSize=12;glass=0;strokeWidth=1;shadow=0;" vertex="1" parent="bVPLZFVqfXPJP5h5ElFw-2">
          <mxGeometry x="32.5" y="790" width="95" height="30" as="geometry" />
        </mxCell>
        <mxCell id="bVPLZFVqfXPJP5h5ElFw-3" value="MQClientInstance" style="swimlane;startSize=20;html=1;" vertex="1" parent="bVPLZFVqfXPJP5h5ElFw-0">
          <mxGeometry x="310" y="20" width="220" height="900" as="geometry" />
        </mxCell>
        <mxCell id="bVPLZFVqfXPJP5h5ElFw-10" value="&lt;div style=&quot;text-align: left;&quot;&gt;&lt;p&gt;&lt;/p&gt;&lt;span style=&quot;font-size: 8px; background-color: transparent; color: light-dark(rgb(0, 0, 0), rgb(255, 255, 255));&quot;&gt;1、异步消息队列（5w）&lt;/span&gt;&lt;br&gt;&lt;span style=&quot;font-size: 8px; background-color: transparent; color: light-dark(rgb(0, 0, 0), rgb(255, 255, 255));&quot;&gt;2、异步发送线程池初始化&lt;/span&gt;&lt;br&gt;&lt;span style=&quot;font-size: 8px; background-color: transparent; color: light-dark(rgb(0, 0, 0), rgb(255, 255, 255));&quot;&gt;3、初始化控制mq数量-10和大小-1MB的信号量&lt;/span&gt;&lt;/div&gt;&lt;div style=&quot;text-align: left;&quot;&gt;&lt;span style=&quot;font-size: 8px; background-color: transparent; color: light-dark(rgb(0, 0, 0), rgb(255, 255, 255));&quot;&gt;4、&lt;/span&gt;&lt;span style=&quot;background-color: transparent; text-align: center; font-size: 8px;&quot;&gt;创建用于检测 broker 健康状态的 ServiceDetector&lt;/span&gt;&lt;/div&gt;&lt;div style=&quot;text-align: left;&quot;&gt;&lt;span style=&quot;background-color: transparent; text-align: center; font-size: 8px;&quot;&gt;5、&lt;/span&gt;&lt;span style=&quot;background-color: transparent; text-align: center; font-size: 8px;&quot;&gt;创建 MQFaultStrategy 实例，用于处理 broker 故障和消息队列选择&lt;/span&gt;&lt;/div&gt;" style="shape=note;whiteSpace=wrap;html=1;backgroundOutline=1;darkOpacity=0.05;size=14;fillColor=#fff2cc;strokeColor=#d6b656;" vertex="1" parent="bVPLZFVqfXPJP5h5ElFw-3">
          <mxGeometry x="19" y="50" width="170" height="150" as="geometry" />
        </mxCell>
        <mxCell id="bVPLZFVqfXPJP5h5ElFw-31" value="&lt;div style=&quot;&quot;&gt;&lt;p&gt;&lt;/p&gt;&lt;span style=&quot;font-size: 8px;&quot;&gt;&lt;div style=&quot;text-align: left;&quot;&gt;&lt;span style=&quot;background-color: transparent; color: light-dark(rgb(0, 0, 0), rgb(255, 255, 255));&quot;&gt;从factoryTable（&lt;/span&gt;&lt;span style=&quot;background-color: transparent; color: light-dark(rgb(0, 0, 0), rgb(255, 255, 255));&quot;&gt;concurrentHashMap&lt;/span&gt;&lt;span style=&quot;background-color: transparent; color: light-dark(rgb(0, 0, 0), rgb(255, 255, 255));&quot;&gt;）中取&lt;/span&gt;&lt;/div&gt;&lt;/span&gt;&lt;/div&gt;&lt;div style=&quot;text-align: left;&quot;&gt;&lt;span style=&quot;font-size: 8px;&quot;&gt;key是ip@实例名称&lt;/span&gt;&lt;/div&gt;" style="shape=note;whiteSpace=wrap;html=1;backgroundOutline=1;darkOpacity=0.05;size=14;fillColor=#fff2cc;strokeColor=#d6b656;" vertex="1" parent="bVPLZFVqfXPJP5h5ElFw-3">
          <mxGeometry x="19" y="470" width="161" height="50" as="geometry" />
        </mxCell>
        <mxCell id="bVPLZFVqfXPJP5h5ElFw-25" value="&lt;div style=&quot;&quot;&gt;&lt;p&gt;&lt;/p&gt;&lt;span style=&quot;font-size: 8px;&quot;&gt;&lt;div style=&quot;text-align: left;&quot;&gt;&lt;span style=&quot;background-color: transparent; color: light-dark(rgb(0, 0, 0), rgb(255, 255, 255));&quot;&gt;producerGroup 不为空且不超过255个字符，不能跟默认的DEFAULT_PRODUCER名字相同&lt;/span&gt;&lt;/div&gt;&lt;/span&gt;&lt;/div&gt;" style="shape=note;whiteSpace=wrap;html=1;backgroundOutline=1;darkOpacity=0.05;size=14;fillColor=#fff2cc;strokeColor=#d6b656;" vertex="1" parent="bVPLZFVqfXPJP5h5ElFw-3">
          <mxGeometry x="19" y="330" width="170" height="60" as="geometry" />
        </mxCell>
        <mxCell id="bVPLZFVqfXPJP5h5ElFw-40" value="&lt;div style=&quot;&quot;&gt;&lt;p&gt;&lt;/p&gt;&lt;span style=&quot;font-size: 8px;&quot;&gt;&lt;div style=&quot;text-align: left;&quot;&gt;&lt;span style=&quot;background-color: transparent; color: light-dark(rgb(0, 0, 0), rgb(255, 255, 255));&quot;&gt;producerTable（&lt;/span&gt;&lt;span style=&quot;background-color: transparent; color: light-dark(rgb(0, 0, 0), rgb(255, 255, 255));&quot;&gt;concurrentHashMap&lt;/span&gt;&lt;span style=&quot;background-color: transparent; color: light-dark(rgb(0, 0, 0), rgb(255, 255, 255));&quot;&gt;）&lt;/span&gt;&lt;/div&gt;&lt;/span&gt;&lt;/div&gt;&lt;div style=&quot;text-align: left;&quot;&gt;&lt;span style=&quot;font-size: 8px;&quot;&gt;key是生产者组名&lt;/span&gt;&lt;/div&gt;&lt;div style=&quot;text-align: left;&quot;&gt;&lt;span style=&quot;font-size: 8px;&quot;&gt;val是当前&lt;/span&gt;&lt;span style=&quot;background-color: transparent; text-align: center; font-size: 8px;&quot;&gt;DefaultMQProducerImpl对象&lt;/span&gt;&lt;/div&gt;" style="shape=note;whiteSpace=wrap;html=1;backgroundOutline=1;darkOpacity=0.05;size=14;fillColor=#fff2cc;strokeColor=#d6b656;" vertex="1" parent="bVPLZFVqfXPJP5h5ElFw-3">
          <mxGeometry x="19" y="545" width="161" height="50" as="geometry" />
        </mxCell>
        <mxCell id="bVPLZFVqfXPJP5h5ElFw-45" value="&lt;span style=&quot;font-size: 10px; background-color: transparent; color: light-dark(rgb(0, 0, 0), rgb(255, 255, 255));&quot;&gt;启动&lt;/span&gt;" style="rounded=1;whiteSpace=wrap;html=1;fontSize=12;glass=0;strokeWidth=1;shadow=0;" vertex="1" parent="bVPLZFVqfXPJP5h5ElFw-3">
          <mxGeometry x="46" y="670" width="95" height="30" as="geometry" />
        </mxCell>
        <mxCell id="bVPLZFVqfXPJP5h5ElFw-9" value="" style="edgeStyle=elbowEdgeStyle;elbow=vertical;endArrow=classic;html=1;curved=0;rounded=0;endSize=5;startSize=8;entryX=0.5;entryY=0;entryDx=0;entryDy=0;exitX=0.5;exitY=1;exitDx=0;exitDy=0;endFill=1;" edge="1" parent="bVPLZFVqfXPJP5h5ElFw-0" source="bVPLZFVqfXPJP5h5ElFw-5" target="bVPLZFVqfXPJP5h5ElFw-6">
          <mxGeometry width="50" height="50" relative="1" as="geometry">
            <mxPoint x="70" y="103" as="sourcePoint" />
            <mxPoint x="60" y="220" as="targetPoint" />
          </mxGeometry>
        </mxCell>
        <mxCell id="bVPLZFVqfXPJP5h5ElFw-13" value="" style="edgeStyle=orthogonalEdgeStyle;rounded=0;orthogonalLoop=1;jettySize=auto;html=1;fontFamily=Helvetica;fontSize=12;fontColor=default;dashed=1;" edge="1" parent="bVPLZFVqfXPJP5h5ElFw-0" source="bVPLZFVqfXPJP5h5ElFw-6" target="bVPLZFVqfXPJP5h5ElFw-10">
          <mxGeometry relative="1" as="geometry" />
        </mxCell>
        <mxCell id="bVPLZFVqfXPJP5h5ElFw-20" style="edgeStyle=elbowEdgeStyle;shape=connector;curved=0;rounded=0;orthogonalLoop=1;jettySize=auto;elbow=vertical;html=1;entryX=0.5;entryY=0;entryDx=0;entryDy=0;strokeColor=default;align=center;verticalAlign=middle;fontFamily=Helvetica;fontSize=12;fontColor=default;labelBackgroundColor=default;startSize=8;endArrow=classic;endFill=1;endSize=5;" edge="1" parent="bVPLZFVqfXPJP5h5ElFw-0" source="bVPLZFVqfXPJP5h5ElFw-16" target="bVPLZFVqfXPJP5h5ElFw-18">
          <mxGeometry relative="1" as="geometry" />
        </mxCell>
        <mxCell id="bVPLZFVqfXPJP5h5ElFw-32" value="" style="edgeStyle=elbowEdgeStyle;shape=connector;curved=0;rounded=0;orthogonalLoop=1;jettySize=auto;elbow=vertical;html=1;strokeColor=default;align=center;verticalAlign=middle;fontFamily=Helvetica;fontSize=12;fontColor=default;labelBackgroundColor=default;startSize=8;endArrow=classic;endFill=1;endSize=5;dashed=1;" edge="1" parent="bVPLZFVqfXPJP5h5ElFw-0" source="bVPLZFVqfXPJP5h5ElFw-29" target="bVPLZFVqfXPJP5h5ElFw-31">
          <mxGeometry relative="1" as="geometry" />
        </mxCell>
        <mxCell id="bVPLZFVqfXPJP5h5ElFw-33" value="" style="edgeStyle=elbowEdgeStyle;shape=connector;curved=0;rounded=0;orthogonalLoop=1;jettySize=auto;elbow=vertical;html=1;strokeColor=default;align=center;verticalAlign=middle;fontFamily=Helvetica;fontSize=12;fontColor=default;labelBackgroundColor=default;startSize=8;endArrow=classic;endFill=1;endSize=5;dashed=1;" edge="1" parent="bVPLZFVqfXPJP5h5ElFw-0" source="bVPLZFVqfXPJP5h5ElFw-21" target="bVPLZFVqfXPJP5h5ElFw-25">
          <mxGeometry relative="1" as="geometry" />
        </mxCell>
        <mxCell id="bVPLZFVqfXPJP5h5ElFw-42" value="" style="edgeStyle=elbowEdgeStyle;shape=connector;curved=0;rounded=0;orthogonalLoop=1;jettySize=auto;elbow=vertical;html=1;strokeColor=default;align=center;verticalAlign=middle;fontFamily=Helvetica;fontSize=12;fontColor=default;labelBackgroundColor=default;startSize=8;endArrow=classic;endFill=1;endSize=5;dashed=1;" edge="1" parent="bVPLZFVqfXPJP5h5ElFw-0" source="bVPLZFVqfXPJP5h5ElFw-34" target="bVPLZFVqfXPJP5h5ElFw-40">
          <mxGeometry relative="1" as="geometry" />
        </mxCell>
        <mxCell id="bVPLZFVqfXPJP5h5ElFw-46" style="edgeStyle=elbowEdgeStyle;shape=connector;curved=0;rounded=0;orthogonalLoop=1;jettySize=auto;elbow=vertical;html=1;entryX=0.5;entryY=0;entryDx=0;entryDy=0;strokeColor=default;align=center;verticalAlign=middle;fontFamily=Helvetica;fontSize=12;fontColor=default;labelBackgroundColor=default;startSize=8;endArrow=classic;endFill=1;endSize=5;" edge="1" parent="bVPLZFVqfXPJP5h5ElFw-0" source="bVPLZFVqfXPJP5h5ElFw-43" target="bVPLZFVqfXPJP5h5ElFw-45">
          <mxGeometry relative="1" as="geometry" />
        </mxCell>
        <mxCell id="bVPLZFVqfXPJP5h5ElFw-50" style="edgeStyle=elbowEdgeStyle;shape=connector;curved=0;rounded=0;orthogonalLoop=1;jettySize=auto;elbow=vertical;html=1;entryX=0.5;entryY=0;entryDx=0;entryDy=0;strokeColor=default;align=center;verticalAlign=middle;fontFamily=Helvetica;fontSize=12;fontColor=default;labelBackgroundColor=default;startSize=8;endArrow=classic;endFill=1;endSize=5;" edge="1" parent="bVPLZFVqfXPJP5h5ElFw-0" source="bVPLZFVqfXPJP5h5ElFw-45" target="bVPLZFVqfXPJP5h5ElFw-49">
          <mxGeometry relative="1" as="geometry" />
        </mxCell>
        <mxCell id="bVPLZFVqfXPJP5h5ElFw-54" style="edgeStyle=elbowEdgeStyle;shape=connector;curved=0;rounded=0;orthogonalLoop=1;jettySize=auto;elbow=vertical;html=1;entryX=0.5;entryY=0;entryDx=0;entryDy=0;strokeColor=default;align=center;verticalAlign=middle;fontFamily=Helvetica;fontSize=12;fontColor=default;labelBackgroundColor=default;startSize=8;endArrow=classic;endFill=1;endSize=5;" edge="1" parent="bVPLZFVqfXPJP5h5ElFw-0" source="bVPLZFVqfXPJP5h5ElFw-51" target="bVPLZFVqfXPJP5h5ElFw-53">
          <mxGeometry relative="1" as="geometry" />
        </mxCell>
        <mxCell id="bVPLZFVqfXPJP5h5ElFw-15" value="" style="edgeStyle=elbowEdgeStyle;elbow=vertical;endArrow=classic;html=1;curved=0;rounded=0;endSize=5;startSize=8;entryX=0.5;entryY=0;entryDx=0;entryDy=0;" edge="1" parent="WIyWlLk6GJQsqaUBKTNV-1" target="bVPLZFVqfXPJP5h5ElFw-14">
          <mxGeometry width="50" height="50" relative="1" as="geometry">
            <mxPoint x="240" y="180" as="sourcePoint" />
            <mxPoint x="392" y="170" as="targetPoint" />
          </mxGeometry>
        </mxCell>
        <mxCell id="bVPLZFVqfXPJP5h5ElFw-47" value="&lt;div style=&quot;&quot;&gt;&lt;p&gt;&lt;/p&gt;&lt;div style=&quot;text-align: left; font-size: 8px;&quot;&gt;1、启动网络通信层 (mQClientAPIImpl.start())&lt;/div&gt;&lt;div style=&quot;text-align: left; font-size: 8px;&quot;&gt;2、启动定时任务 (startScheduledTask())&lt;/div&gt;&lt;div style=&quot;text-align: left; font-size: 8px;&quot;&gt;&lt;span style=&quot;background-color: transparent; color: light-dark(rgb(0, 0, 0), rgb(255, 255, 255));&quot;&gt;&lt;span style=&quot;white-space: pre;&quot;&gt;&#x9;&lt;/span&gt;a.NameServer 地址获取任务 -2min/次&lt;/span&gt;&lt;/div&gt;&lt;div style=&quot;text-align: left;&quot;&gt;&lt;span style=&quot;font-size: 8px; background-color: transparent; color: light-dark(rgb(0, 0, 0), rgb(255, 255, 255));&quot;&gt;&lt;span style=&quot;white-space: pre;&quot;&gt;&#x9;&lt;/span&gt;b.&lt;/span&gt;&lt;span style=&quot;background-color: transparent; font-size: 8px;&quot;&gt;Topic 路由信息更新任务 -默认30s/次&lt;/span&gt;&lt;span style=&quot;font-size: 8px; background-color: transparent; color: light-dark(rgb(0, 0, 0), rgb(255, 255, 255));&quot;&gt;&lt;br&gt;&lt;/span&gt;&lt;/div&gt;&lt;div style=&quot;text-align: left;&quot;&gt;&lt;span style=&quot;color: light-dark(rgb(0, 0, 0), rgb(255, 255, 255)); background-color: transparent; font-size: 8px;&quot;&gt;&lt;span style=&quot;white-space: pre;&quot;&gt;&#x9;&lt;/span&gt;c.&lt;/span&gt;&lt;span style=&quot;background-color: transparent;&quot;&gt;&lt;span style=&quot;font-size: 8px;&quot;&gt;心跳发送和离线 Broker 清理任务&amp;nbsp;-默认30s/次&lt;/span&gt;&lt;/span&gt;&lt;span style=&quot;background-color: transparent; font-size: 8px;&quot;&gt;&lt;/span&gt;&lt;/div&gt;&lt;div style=&quot;text-align: left;&quot;&gt;&lt;span style=&quot;color: light-dark(rgb(0, 0, 0), rgb(255, 255, 255)); background-color: transparent; font-size: 8px;&quot;&gt;&lt;span style=&quot;white-space: pre;&quot;&gt;&#x9;&lt;/span&gt;d.&lt;/span&gt;&lt;span style=&quot;background-color: transparent;&quot;&gt;&lt;span style=&quot;font-size: 8px;&quot;&gt;消费者偏移量持久化任务&amp;nbsp;-默认5s/次&lt;/span&gt;&lt;/span&gt;&lt;span style=&quot;background-color: transparent; text-align: center; font-size: 8px;&quot;&gt;&lt;/span&gt;&lt;/div&gt;&lt;div style=&quot;text-align: left;&quot;&gt;&lt;span style=&quot;color: light-dark(rgb(0, 0, 0), rgb(255, 255, 255)); background-color: transparent; font-size: 8px;&quot;&gt;&lt;span style=&quot;white-space: pre;&quot;&gt;&#x9;&lt;/span&gt;e.&lt;/span&gt;&lt;span style=&quot;background-color: transparent;&quot;&gt;&lt;span style=&quot;font-size: 8px;&quot;&gt;线程池调整任务&amp;nbsp;-默认1min/次&lt;/span&gt;&lt;/span&gt;&lt;span style=&quot;background-color: transparent;&quot;&gt;&lt;span style=&quot;font-size: 8px;&quot;&gt;&lt;/span&gt;&lt;/span&gt;&lt;/div&gt;&lt;div style=&quot;text-align: left;&quot;&gt;&lt;span style=&quot;font-size: 8px;&quot;&gt;3、&lt;/span&gt;&lt;span style=&quot;background-color: transparent; text-align: center; font-size: 8px;&quot;&gt;启动拉取消息服务 (pullMessageService.start())&lt;/span&gt;&lt;/div&gt;&lt;div style=&quot;text-align: left;&quot;&gt;&lt;span style=&quot;background-color: transparent; text-align: center; font-size: 8px;&quot;&gt;4、&lt;/span&gt;&lt;span style=&quot;background-color: transparent; text-align: center; font-size: 8px;&quot;&gt;启动负载均衡服务 (rebalanceService.start())&lt;/span&gt;&lt;/div&gt;&lt;div style=&quot;text-align: left;&quot;&gt;&lt;span style=&quot;background-color: transparent; text-align: center; font-size: 8px;&quot;&gt;&lt;span style=&quot;white-space: pre;&quot;&gt;&#x9;&lt;/span&gt;a.集群模式：按照不同的策略，给消费者分配队列&lt;br&gt;&lt;/span&gt;&lt;/div&gt;&lt;div style=&quot;text-align: left;&quot;&gt;&lt;span style=&quot;background-color: transparent; text-align: center; font-size: 8px;&quot;&gt;&lt;span style=&quot;white-space: pre;&quot;&gt;&#x9;&lt;/span&gt;b.广播模式：每个消费者会消费所有的队列&lt;br&gt;&lt;/span&gt;&lt;/div&gt;&lt;/div&gt;" style="shape=note;whiteSpace=wrap;html=1;backgroundOutline=1;darkOpacity=0.05;size=14;fillColor=#fff2cc;strokeColor=#d6b656;" vertex="1" parent="WIyWlLk6GJQsqaUBKTNV-1">
          <mxGeometry x="510" y="650" width="200" height="170" as="geometry" />
        </mxCell>
        <mxCell id="bVPLZFVqfXPJP5h5ElFw-48" value="" style="edgeStyle=elbowEdgeStyle;shape=connector;curved=0;rounded=0;orthogonalLoop=1;jettySize=auto;elbow=vertical;html=1;strokeColor=default;align=center;verticalAlign=middle;fontFamily=Helvetica;fontSize=12;fontColor=default;labelBackgroundColor=default;startSize=8;endArrow=classic;endFill=1;endSize=5;dashed=1;" edge="1" parent="WIyWlLk6GJQsqaUBKTNV-1" source="bVPLZFVqfXPJP5h5ElFw-45" target="bVPLZFVqfXPJP5h5ElFw-47">
          <mxGeometry relative="1" as="geometry" />
        </mxCell>
        <mxCell id="bVPLZFVqfXPJP5h5ElFw-55" value="&lt;span style=&quot;font-size: 10px;&quot;&gt;结束&lt;/span&gt;" style="rounded=1;whiteSpace=wrap;html=1;fontSize=12;glass=0;strokeWidth=1;shadow=0;" vertex="1" parent="WIyWlLk6GJQsqaUBKTNV-1">
          <mxGeometry x="190" y="980" width="95" height="30" as="geometry" />
        </mxCell>
        <mxCell id="bVPLZFVqfXPJP5h5ElFw-56" style="edgeStyle=elbowEdgeStyle;shape=connector;curved=0;rounded=0;orthogonalLoop=1;jettySize=auto;elbow=vertical;html=1;entryX=0.5;entryY=0;entryDx=0;entryDy=0;strokeColor=default;align=center;verticalAlign=middle;fontFamily=Helvetica;fontSize=12;fontColor=default;labelBackgroundColor=default;startSize=8;endArrow=classic;endFill=1;endSize=5;" edge="1" parent="WIyWlLk6GJQsqaUBKTNV-1" source="bVPLZFVqfXPJP5h5ElFw-53" target="bVPLZFVqfXPJP5h5ElFw-55">
          <mxGeometry relative="1" as="geometry" />
        </mxCell>
      </root>
    </mxGraphModel>
  </diagram>
</mxfile>
